<?xml version="1.0" standalone="no"?>
<!DOCTYPE svg PUBLIC "-//W3C//DTD SVG 20010904//EN"
 "http://www.w3.org/TR/2001/REC-SVG-20010904/DTD/svg10.dtd">
<svg version="1.0" xmlns="http://www.w3.org/2000/svg"
 width="224.000000pt" height="210.000000pt" viewBox="0 0 224.000000 210.000000"
 preserveAspectRatio="xMidYMid meet">

<g transform="translate(0.000000,210.000000) scale(0.100000,-0.100000)"
fill="#000000" stroke="none">
<path d="M870 1090 l0 -960 95 0 95 0 0 800 c0 440 2 800 5 800 3 0 52 -37
108 -83 56 -46 117 -92 135 -102 l32 -19 0 -698 0 -698 30 0 30 0 0 711 0 711
-76 86 c-42 48 -99 119 -126 157 -50 70 -128 217 -128 242 0 10 -25 13 -100
13 l-100 0 0 -960z"/>
<path d="M60 70 c0 -20 7 -20 1075 -20 1068 0 1075 0 1075 20 0 20 -7 20
-1075 20 -1068 0 -1075 0 -1075 -20z"/>
</g>
</svg>
